# xmcd CD database file
#
# Track frame offsets:
#	150
#	57525
#	104610
#	148800
#	193720
#	229132
#
# Disc length: 3427 seconds
#
# Revision: 0
# Processed by: cddbd v1.4PL0 Copyright (c) Steve Scherf et al.
# Submitted via: CDex 1.50Beta7
#
DISCID=5b0d6106
DTITLE=Trevor Watts - Live At The Athens Concert Hall
DYEAR=1999
DGENRE=Jazz
TTITLE0=Seamless
TTITLE1=Tribute to Don Cherry
TTITLE2=Gentle Love (Version 2)
TTITLE3=Indian Hills
TTITLE4=Yatra Groove
TTITLE5=Mrs. Robinson
EXTD=YEAR: 1999
EXTT0=
EXTT1=
EXTT2=
EXTT3=
EXTT4=
EXTT5=
PLAYORDER=
